<?xml version="1.0" encoding="UTF-8"?>
<svg xmlns="http://www.w3.org/2000/svg" width="150" height="40" viewBox="0 0 150 40" fill="none">
    <path fill-rule="evenodd" clip-rule="evenodd" d="M2.04156 13.3333L2.04156 27.3333H0L6.24675e-07 13.3333H2.04156Z"
          fill="#1455FF"></path>
    <path fill-rule="evenodd" clip-rule="evenodd"
          d="M8.39335 28.1794C9.40655 30.2197 10.4164 30.6667 10.8883 30.6667C11.3602 30.6667 12.3701 30.2197 13.3833 28.1794C14.329 26.2749 14.9714 23.5034 14.9714 20.3333C14.9714 17.1633 14.329 14.3918 13.3833 12.4873C12.3701 10.447 11.3602 10 10.8883 10C10.4164 10 9.40656 10.447 8.39335 12.4873C7.44758 14.3918 6.80519 17.1633 6.80519 20.3333C6.80519 23.5034 7.44758 26.2749 8.39335 28.1794ZM4.76364 20.3333C4.76364 27.1448 7.50575 32.6667 10.8883 32.6667C14.2709 32.6667 17.013 27.1448 17.013 20.3333C17.013 13.5218 14.2709 8 10.8883 8C7.50575 8 4.76364 13.5218 4.76364 20.3333Z"
          fill="#1455FF"></path>
    <path fill-rule="evenodd" clip-rule="evenodd"
          d="M38.9781 31.2008C40.9241 28.5001 42.1922 24.6641 42.1922 20.3333C42.1922 16.0025 40.9241 12.1666 38.9781 9.46588C37.0283 6.75991 34.5257 5.33333 31.9844 5.33333C29.4432 5.33333 26.9405 6.75991 24.9907 9.46588C23.0447 12.1666 21.7766 16.0025 21.7766 20.3333C21.7766 24.6641 23.0447 28.5001 24.9907 31.2008C26.9405 33.9068 29.4432 35.3333 31.9844 35.3333C34.5257 35.3333 37.0283 33.9068 38.9781 31.2008ZM31.9844 37.3333C38.7495 37.3333 44.2338 29.7222 44.2338 20.3333C44.2338 10.9445 38.7495 3.33333 31.9844 3.33333C25.2193 3.33333 19.7351 10.9445 19.7351 20.3333C19.7351 29.7222 25.2193 37.3333 31.9844 37.3333Z"
          fill="#1455FF"></path>
    <path fill-rule="evenodd" clip-rule="evenodd"
          d="M129.299 2H68.7325C58.5848 2 50.3584 10.0589 50.3584 20C50.3584 29.9411 58.5848 38 68.7325 38H129.299C139.446 38 147.673 29.9411 147.673 20C147.673 10.0589 139.446 2 129.299 2ZM68.7325 0C57.4573 0 48.3169 8.95431 48.3169 20C48.3169 31.0457 57.4573 40 68.7325 40H129.299C140.574 40 149.714 31.0457 149.714 20C149.714 8.95431 140.574 0 129.299 0H68.7325Z"
          fill="#1455FF"></path>
    <path d="M70.3823 27.5853C73.955 27.5853 76.5846 25.2333 76.899 22.0693H74.6982C74.4695 24.4493 72.5259 25.6533 70.4109 25.6533C67.5241 25.6533 65.5234 23.7773 65.5234 20.1653V19.9413C65.5234 16.4973 67.6099 14.3693 70.3251 14.3693C72.383 14.3693 74.098 15.2373 74.4695 17.5613H76.8132C76.3559 13.8373 73.4406 12.4373 70.3251 12.4373C66.3237 12.4373 63.0654 15.4613 63.0654 19.9413V20.1653C63.0654 24.7293 66.2094 27.5853 70.3823 27.5853Z"
          fill="#1455FF"></path>
    <path d="M85.934 25.6533C82.8757 25.6533 81.0465 23.4973 81.0465 20.1373V19.9133C81.0465 16.5533 82.9329 14.3693 85.934 14.3693C88.9065 14.3693 90.8215 16.5533 90.8215 19.9413V20.1373C90.8215 23.4413 88.9351 25.6533 85.934 25.6533ZM85.9054 27.5853C90.1355 27.5853 93.2795 24.5333 93.2795 20.1093V19.8853C93.2795 15.4893 90.1641 12.4373 85.934 12.4373C81.7039 12.4373 78.5885 15.5173 78.5885 19.9133V20.1373C78.5885 24.4213 81.6467 27.5853 85.9054 27.5853Z"
          fill="#1455FF"></path>
    <path d="M105.77 14.6493V12.6893H93.7371V14.6493H98.5675V27.3333H100.94V14.6493H105.77Z" fill="#1455FF"></path>
    <path d="M126.109 27.5853C128.082 27.5853 130.197 26.2973 131.026 24.8693V27.3333H133.398V12.6893H131.026V14.9853C130.14 13.5573 128.653 12.4373 126.338 12.4373C122.565 12.4373 119.507 15.6013 119.507 20.0813V20.3053C119.507 24.8973 122.537 27.5853 126.109 27.5853ZM126.367 25.6533C123.994 25.6533 121.965 23.8893 121.965 20.1933V19.9693C121.965 16.3853 123.823 14.3693 126.567 14.3693C129.282 14.3693 131.111 16.1053 131.111 19.8853V20.1093C131.111 23.8613 128.91 25.6533 126.367 25.6533Z"
          fill="#1455FF"></path>
    <path d="M110.223 18.4557V12.6326H107.851V27.2766H110.223V20.7423H111.059L116.854 27.2766H119.741L112.796 19.5206L119.198 12.6326H116.426L111.139 18.4557H110.223Z"
          fill="#1455FF"></path>
</svg>